PathFileType	4	(X/Y/Z)	/Users/itak/Documents/Research/Walk-IL/dataset/trc/00176_00008.trc
DataRate	CameraRate	NumFrames	NumMarkers	Units	OrigDataRate	OrigDataStartFrame	OrigNumFrames
100.000000	100.000000	4	53	mm	100.000000	0	619
Frame#	Time	RPSI			LPSI			L3			STRN			T10			C7			CLAV			RBAK			LBAK			LSHO			LUPA			LAEL			LAOL			LWTS			LWPS			LFRA			LIFD			LHPS			LHTS			RSHO			RUPA			RAEL			RAOL			RWTS			RWPS			RFRA			RIFD			RHTS			RHPS			RBHD			LFHD			RFHD			LBHD			LHIP			RHIP			RASI			LASI			LKNE			LTHI			LANK			LTIP			LTOE			LMT1			LMT5			LHEE			RKNE			RTHI			RANK			RTIP			RTOE			RMT1			RMT5			RHEE			
		X1	Y1	Z1	X2	Y2	Z2	X3	Y3	Z3	X4	Y4	Z4	X5	Y5	Z5	X6	Y6	Z6	X7	Y7	Z7	X8	Y8	Z8	X9	Y9	Z9	X10	Y10	Z10	X11	Y11	Z11	X12	Y12	Z12	X13	Y13	Z13	X14	Y14	Z14	X15	Y15	Z15	X16	Y16	Z16	X17	Y17	Z17	X18	Y18	Z18	X19	Y19	Z19	X20	Y20	Z20	X21	Y21	Z21	X22	Y22	Z22	X23	Y23	Z23	X24	Y24	Z24	X25	Y25	Z25	X26	Y26	Z26	X27	Y27	Z27	X28	Y28	Z28	X29	Y29	Z29	X30	Y30	Z30	X31	Y31	Z31	X32	Y32	Z32	X33	Y33	Z33	X34	Y34	Z34	X35	Y35	Z35	X36	Y36	Z36	X37	Y37	Z37	X38	Y38	Z38	X39	Y39	Z39	X40	Y40	Z40	X41	Y41	Z41	X42	Y42	Z42	X43	Y43	Z43	X44	Y44	Z44	X45	Y45	Z45	X46	Y46	Z46	X47	Y47	Z47	X48	Y48	Z48	X49	Y49	Z49	X50	Y50	Z50	X51	Y51	Z51	X52	Y52	Z52	X53	Y53	Z53	

1	0	825.8048095703125	1050.723876953125	289.7552795410156	827.9653930664062	1052.18359375	166.4296112060547	826.8789672851562	1090.354248046875	230.6581573486328	1085.764404296875	1298.87353515625	224.8274993896484	794.2998046875	1246.163208007812	223.0101928710938	856.3821411132812	1517.094970703125	208.6997375488281	1057.377197265625	1412.74072265625	213.5013580322266	789.84228515625	1343.23486328125	318.4111022949219	849.8404541015625	1491.229125976562	109.109375	927.173828125	1478.664428710938	30.09255218505859	892.302978515625	1345.598266601562	-40.9075813293457	904.1871948242188	1126.742431640625	-54.59212493896484	853.32763671875	1114.185791015625	17.43238067626953	1020.429321289062	900.359375	-14.08254718780518	939.865966796875	874.2905883789062	-54.41455078125	920.4727172851562	1015.937377929688	-64.65436553955078	1042.002685546875	715.0927734375	12.37234020233154	962.84716796875	805.3209228515625	-47.54425811767578	1034.204223632812	821.8973999023438	-32.02346038818359	920.1534423828125	1496.122192382812	391.1463928222656	899.2400512695312	1430.2099609375	461.2560424804688	887.11962890625	1141.57177734375	516.8282470703125	884.0947265625	1131.883911132812	420.0668640136719	1031.244384765625	919.0521850585938	497.0696716308594	958.1483154296875	899.543701171875	546.0706176757812	913.586181640625	1069.771362304688	535.3265380859375	1049.40087890625	732.0214233398438	473.1600036621094	1059.797607421875	826.3040771484375	505.07421875	988.1036376953125	817.1149291992188	542.659423828125	907.4655151367188	1671.288696289062	281.1065063476562	1057.313842773438	1733.1923828125	135.5042724609375	1066.759521484375	1739.463500976562	264.4284362792969	887.4678955078125	1671.422119140625	144.7347106933594	933.1558227539062	988.4398803710938	50.09213256835938	978.3134155273438	1014.01416015625	416.1156005859375	1059.890014648438	1040.345703125	361.8419494628906	1058.53173828125	1027.721557617188	104.1145858764648	938.0390625	493.8759460449219	80.72160339355469	948.96875	636.3272705078125	53.94980621337891	836.4462280273438	39.96135711669922	68.75956726074219	889.5570068359375	274.2005920410156	61.76640319824219	1056.677490234375	37.86759948730469	76.789306640625	1010.375610351562	38.99499130249023	127.8943099975586	941.7725830078125	32.60205078125	20.71054267883301	790.7454833984375	40.06869125366211	141.1722259521484	970.2200317382812	515.3064575195312	401.5002136230469	1025.857177734375	782.826904296875	427.2450256347656	850.4497680664062	37.19329833984375	408.1832275390625	970.4815063476562	395.0228881835938	383.8185424804688	1075.391845703125	39.75824737548828	373.2709655761719	1018.733032226562	38.63096237182617	329.0632934570312	963.0029907226562	33.10762786865234	444.8522338867188	798.9762573242188	37.49913787841797	340.1973571777344	
2	0.01	825.8040771484375	1050.7373046875	289.8389587402344	827.9578857421875	1052.150024414062	166.485595703125	826.87255859375	1090.372680664062	230.7366333007812	1085.777099609375	1298.902709960938	224.8187255859375	794.2637939453125	1246.15869140625	223.0551147460938	856.33837890625	1517.07080078125	208.6779479980469	1057.3623046875	1412.75927734375	213.4736175537109	789.846923828125	1343.264038085938	318.4406433105469	849.806640625	1491.192993164062	109.085823059082	927.119873046875	1478.611206054688	30.06510353088379	892.268310546875	1345.566040039062	-40.91844177246094	904.128662109375	1126.712158203125	-54.59603500366211	853.1321411132812	1114.117919921875	17.36154747009277	1020.219482421875	900.2576293945312	-14.07284641265869	939.6714477539062	874.22607421875	-54.4049072265625	920.3883056640625	1015.876098632812	-64.65153503417969	1041.8046875	715.0055541992188	12.4442195892334	962.6654052734375	805.216796875	-47.49753189086914	1033.993774414062	821.8123168945312	-32.01702499389648	920.1487426757812	1496.15966796875	391.1221313476562	899.2630615234375	1430.269165039062	461.2611083984375	887.1962280273438	1141.649536132812	516.9150390625	884.0889892578125	1131.94873046875	420.1354370117188	1031.322509765625	919.119873046875	497.1424865722656	958.2508544921875	899.6149291992188	546.19677734375	913.6551513671875	1069.839599609375	535.4176025390625	1049.443359375	732.0504150390625	473.2760009765625	1059.863525390625	826.35888671875	505.1460266113281	988.1976318359375	817.1800537109375	542.7901000976562	907.1157836914062	1670.913208007812	281.1997985839844	1056.6416015625	1733.591064453125	135.6372528076172	1066.173217773438	1739.671508789062	264.6049194335938	886.9988403320312	1671.209838867188	144.9067840576172	933.0999755859375	988.417724609375	50.15734481811523	978.3114013671875	1014.02685546875	416.1729125976562	1059.892578125	1040.355102539062	361.8873901367188	1058.532348632812	1027.718994140625	104.1793823242188	938.06494140625	493.8663330078125	80.75596618652344	948.9865112304688	636.3174438476562	53.99289321899414	836.44140625	39.96244430541992	68.76439666748047	889.5714111328125	274.2043151855469	61.78386306762695	1056.679077148438	37.866943359375	76.7899169921875	1010.378845214844	38.98925399780273	127.9017028808594	941.7749633789062	32.60737228393555	20.7131404876709	790.7374267578125	40.06608200073242	141.1810607910156	970.1499633789062	515.3155517578125	401.5732116699219	1025.841064453125	782.8291015625	427.3031921386719	850.448486328125	37.19301223754883	408.18505859375	970.448974609375	395.0448608398438	383.8230895996094	1075.391845703125	39.76006317138672	373.2720642089844	1018.734802246094	38.63868713378906	329.0620422363281	963.0013427734375	33.10414886474609	444.8524475097656	798.9814453125	37.50164031982422	340.1946716308594	
3	0.02	825.7952880859375	1050.75390625	289.9329528808594	827.9496459960938	1052.112915039062	166.5472717285156	826.8679809570312	1090.394287109375	230.8230438232422	1085.7978515625	1298.93896484375	224.8041381835938	794.2259521484375	1246.151611328125	223.0991668701172	856.287109375	1517.04248046875	208.6441192626953	1057.348022460938	1412.783325195312	213.4332427978516	789.8556518554688	1343.298950195312	318.4685668945312	849.76611328125	1491.1474609375	109.0463638305664	927.0629272460938	1478.54638671875	30.02558898925781	892.23193359375	1345.524536132812	-40.93607711791992	904.0606079101562	1126.671752929688	-54.60382843017578	852.9176635742188	1114.032592773438	17.27595138549805	1019.975830078125	900.1334228515625	-14.07088756561279	939.4320068359375	874.1490478515625	-54.40048599243164	920.283203125	1015.799621582031	-64.65300750732422	1041.539428710938	714.8876342773438	12.52263259887695	962.4359741210938	805.0914916992188	-47.44683074951172	1033.734375	821.7042236328125	-32.01362228393555	920.1450805664062	1496.206298828125	391.0853881835938	899.2877807617188	1430.343994140625	461.2591552734375	887.2938232421875	1141.745971679688	517.0195922851562	884.0751953125	1132.034301757812	420.2145385742188	1031.425415039062	919.2101440429688	497.2247924804688	958.3880004882812	899.7086181640625	546.3460693359375	913.7430419921875	1069.92626953125	535.5280151367188	1049.503173828125	732.093505859375	473.4150695800781	1059.9599609375	826.4389038085938	505.2368469238281	988.326416015625	817.2675170898438	542.9465942382812	906.671875	1670.438110351562	281.3377075195312	1055.789916992188	1734.092651367188	135.8248596191406	1065.43603515625	1739.923461914062	264.8370056152344	886.4119873046875	1670.95654296875	145.1365203857422	933.032470703125	988.3841552734375	50.23976516723633	978.3037719726562	1014.0439453125	416.2412414550781	1059.89013671875	1040.3662109375	361.9447021484375	1058.533325195312	1027.714233398438	104.2598648071289	938.0939331054688	493.8558349609375	80.79791259765625	949.0150756835938	636.3042602539062	54.03531646728516	836.4370727539062	39.96334457397461	68.76847839355469	889.5887451171875	274.2073059082031	61.80389785766602	1056.6796875	37.86667251586914	76.78983306884766	1010.382202148438	38.98356246948242	127.9089813232422	941.777587890625	32.61337280273438	20.71640968322754	790.7274780273438	40.06183242797852	141.1884307861328	970.0574951171875	515.3264770507812	401.6589050292969	1025.812133789062	782.8325805664062	427.3775024414062	850.4474487304688	37.19287490844727	408.1864318847656	970.405517578125	395.0709838867188	383.830078125	1075.39208984375	39.76149368286133	373.27294921875	1018.738403320312	38.64595031738281	329.0620727539062	962.9996948242188	33.10158157348633	444.8524780273438	798.9874877929688	37.50431442260742	340.1917419433594	
4	0.03	825.7752685546875	1050.77294921875	290.02685546875	827.9423217773438	1052.07666015625	166.6078796386719	826.8683471679688	1090.416870117188	230.9079284667969	1085.828247070312	1298.98046875	224.7826080322266	794.1907348632812	1246.141479492188	223.1345520019531	856.23193359375	1517.011962890625	208.5964965820312	1057.3369140625	1412.812255859375	213.3796234130859	789.8699340820312	1343.337158203125	318.4893798828125	849.720703125	1491.094482421875	108.9883804321289	927.0105590820312	1478.4736328125	29.97352981567383	892.1983032226562	1345.475219726562	-40.96163940429688	903.9888305664062	1126.622192382812	-54.6168098449707	852.708740234375	1113.934692382812	17.18133163452148	1019.717712402344	899.9938354492188	-14.08007526397705	939.1597900390625	874.0645751953125	-54.40509414672852	920.162109375	1015.711853027344	-64.66129302978516	1041.208740234375	714.7398681640625	12.59717082977295	962.1658935546875	804.9525146484375	-47.39885711669922	1033.438598632812	821.5770263671875	-32.01486206054688	920.1431884765625	1496.259887695312	391.0348510742188	899.31201171875	1430.430786132812	461.2466735839844	887.4090576171875	1141.855834960938	517.13525390625	884.052490234375	1132.137084960938	420.2983093261719	1031.5517578125	919.3211059570312	497.3092041015625	958.558349609375	899.822265625	546.5084838867188	913.8477172851562	1070.027587890625	535.65087890625	1049.582275390625	732.1510620117188	473.5674133300781	1060.08935546875	826.5440673828125	505.3432006835938	988.4915161132812	817.3757934570312	543.1180419921875	906.1552734375	1669.883422851562	281.5298461914062	1054.791748046875	1734.67626953125	136.0683746337891	1064.579711914062	1740.204467773438	265.1190795898438	885.7316284179688	1670.67822265625	145.4219970703125	932.9600219726562	988.3394165039062	50.33417510986328	978.2879028320312	1014.065246582031	416.3159790039062	1059.880615234375	1040.378173828125	362.0120849609375	1058.53564453125	1027.706665039062	104.3516616821289	938.1234741210938	493.8451232910156	80.84488677978516	949.05859375	636.28857421875	54.06737518310547	836.43408203125	39.96370697021484	68.77091217041016	889.607666015625	274.2091369628906	61.82461929321289	1056.679443359375	37.86674880981445	76.7891845703125	1010.384948730469	38.97840881347656	127.9150466918945	941.7799072265625	32.61954116821289	20.72010612487793	790.7159423828125	40.05533218383789	141.1930999755859	969.94482421875	515.33935546875	401.7512512207031	1025.767822265625	782.837646484375	427.46533203125	850.4466552734375	37.19287872314453	408.1871032714844	970.3514404296875	395.10009765625	383.83984375	1075.392700195312	39.7623405456543	373.2734680175781	1018.743591308594	38.6514892578125	329.0635986328125	962.9984130859375	33.10039520263672	444.852294921875	798.9937133789062	37.5068473815918	340.18896484375	
